<svg class="ico-search" xmlns="http://www.w3.org/2000/svg" width="15.299" height="15.197" viewBox="0 0 15.299 15.197">
    <g transform="translate(0.249)">
        <path
            d="M10.35,10.713a.637.637,0,0,1-.084.006c-.3,0-.912.095-.954-.214-.046-.338.608-.133.946-.178,2.123-.289,3.784-2.642,3.784-4.791,0-2.38-2.35-4.95-4.73-4.95s-4.748,2.57-4.748,4.95a5.171,5.171,0,0,0,2.812,4.493c.315.13.684-.017.555.3s-.441.261-.755.132l-.1-.04-.953-.854-.343.307L1.052,14.6a.617.617,0,1,1-.872-.872L4.911,9a8.23,8.23,0,0,1-.705-3.61C4.205,2.33,7.442.263,9.312.263a5.761,5.761,0,0,1,5.041,5.46c0,2.763-1.272,4.619-4,4.99Zm0,0"
            transform="translate(0 0.213)" stroke="#000" stroke-width="0.4"></path>
        <path
            d="M5.783,11.567a5.783,5.783,0,1,1,5.783-5.783A5.79,5.79,0,0,1,5.783,11.567Zm0-9.989A4.206,4.206,0,1,0,9.99,5.783,4.211,4.211,0,0,0,5.783,1.578Z"
            transform="translate(3.483)"></path>
    </g>
</svg>