<svg class="utilities__icons ico--placeholder" xmlns="http://www.w3.org/2000/svg" width="17" height="27"
    viewBox="0 0 17 27" fill="none">
    <g clip-path="url(#clip0_43_405)" stroke="#000">
        <path
            d="M8.49993 0C13.2978 0 17.1184 4.06061 16.9703 8.9697C16.9111 10.2121 16.4668 11.3636 15.9633 12.4848C14.6602 15.3333 12.9128 17.9394 11.0766 20.4545C10.3954 21.3636 9.6846 22.2727 9.00341 23.1515C8.70724 23.5455 8.32223 23.5455 8.02606 23.1515C5.44941 19.9091 3.02083 16.5758 1.21421 12.8182C0.710728 11.7879 0.266477 10.7576 0.118394 9.60606C-0.20739 7.18182 0.473794 5.0303 1.98425 3.15152C3.58355 1.12121 5.98251 0 8.49993 0ZM8.49993 21.8485C8.49993 21.8485 8.64801 21.6667 8.70724 21.5758C9.71421 20.2121 10.7212 18.8485 11.6985 17.4545C13.0609 15.4848 14.3048 13.4242 15.2229 11.1818C15.7264 9.93939 15.9337 8.63636 15.6672 7.30303C14.7787 2.84849 10.5139 0.242424 6.27867 1.57576C3.46508 2.45455 1.3623 5.21212 1.21421 8.24242C1.15498 9.57576 1.56961 10.7879 2.10271 11.9697C3.76125 15.5758 6.10097 18.697 8.49993 21.8788V21.8485Z"
            fill="white"></path>
        <path
            d="M8.648 25.7576C10.4842 25.7273 12.4093 25.5455 14.2456 24.7879C14.6306 24.6061 15.0452 24.394 15.371 24.1212C15.9041 23.697 15.9337 23.2424 15.371 22.8485C14.8379 22.4849 14.2456 22.2121 13.6532 21.9394C13.209 21.7576 12.7351 21.6667 12.2909 21.5455C11.9058 21.4546 11.7281 21.1515 11.817 20.8182C11.8762 20.5152 12.1724 20.303 12.5278 20.3636C13.7125 20.6061 14.8675 20.9394 15.8745 21.6364C16.4076 22 16.8518 22.4546 16.9703 23.1212C17.1184 23.9091 16.763 24.5152 16.2003 25C15.371 25.697 14.3936 26.0909 13.3571 26.3333C9.95114 27.1515 6.51559 27.1515 3.13929 26.1818C2.31002 25.9394 1.51037 25.6061 0.829184 25.0303C-0.296251 24.0606 -0.296251 22.7879 0.829184 21.8485C1.83615 21 3.05044 20.6667 4.29434 20.3636C4.35357 20.3636 4.41281 20.3636 4.47204 20.3333C4.85706 20.2424 5.18284 20.4546 5.24208 20.8182C5.30131 21.1515 5.09399 21.4243 4.70898 21.5455C3.90932 21.7879 3.10967 22.0303 2.33964 22.3333C2.04347 22.4243 1.77692 22.6364 1.53999 22.8485C1.0365 23.2727 1.00688 23.7273 1.53999 24.0909C2.07309 24.4546 2.66542 24.7576 3.25776 24.9697C4.94591 25.5758 6.6933 25.697 8.58877 25.7273L8.648 25.7576Z"
            fill="white"></path>
        <path
            d="M8.61838 11.6061C6.72291 11.6061 5.09399 10 5.09399 8.03031C5.09399 6.06062 6.63406 4.39395 8.58877 4.36365C10.5139 4.36365 12.1132 5.9394 12.1428 7.9091C12.1428 9.96971 10.6323 11.5758 8.61838 11.6061ZM10.9285 8.06062C10.9285 6.72728 9.95114 5.63637 8.61838 5.60607C7.37448 5.60607 6.27866 6.66668 6.27866 8.00001C6.27866 9.27274 7.28563 10.3636 8.55915 10.394C9.83267 10.4243 10.8989 9.36365 10.9285 8.06062Z"
            fill="white"></path>
    </g>
    <defs>
        <clipPath id="clip0_43_405">
            <rect width="17" height="27" fill="#000"></rect>
        </clipPath>
    </defs>
</svg>