<svg class="topbar__icons ico--accessibility" xmlns="http://www.w3.org/2000/svg" width="15.527" height="13.586"
    viewBox="0 0 15.527 13.586">
    <path
        d="M12.915.471A.647.647,0,0,0,12.292,0H11a.647.647,0,0,0,0,1.294h.8l1.546,5.454A3.553,3.553,0,0,0,8.523,9.157,3.344,3.344,0,0,0,7,9.157,3.554,3.554,0,0,0,2.179,6.748L3.724,1.294h.8A.647.647,0,1,0,4.529,0H3.235a.647.647,0,0,0-.622.471L.319,8.563a3.555,3.555,0,1,0,6.766,1.915,1.982,1.982,0,0,1,1.358,0,3.556,3.556,0,1,0,6.766-1.915ZM3.558,12.292a2.264,2.264,0,1,1,2.264-2.264A2.267,2.267,0,0,1,3.558,12.292Zm8.41,0a2.264,2.264,0,1,1,2.264-2.264A2.267,2.267,0,0,1,11.969,12.292Zm0,0"
        transform="translate(0)" fill="#000000"></path>
</svg>