<svg xmlns="http://www.w3.org/2000/svg" width="42" height="36" viewBox="0 0 42 36">
    <g transform="translate(-1461 -1)">
        <rect width="42" height="36" transform="translate(1461 1)" fill="none" />
        <g transform="translate(3 -9)">
            <rect width="14" height="2" transform="translate(1471 17)" fill="#000000" />
            <rect width="14" height="2" transform="translate(1471 22)" fill="#000000" />
        </g>
        <path
            d="M-5.944,4.045h1.357V-2.418l.927,6.463h.6l.914-6.463V4.045H-.717v-10H-2.531L-3.27-.672-4-5.952H-5.944Zm6.328-10v10H3.918V2.526H1.9V-.363H3.421V-1.881H1.9V-4.5H3.838V-5.952Zm4.461,0v10H6.216V-1.706L7.667,4.045H8.9v-10H7.519V-.591l-1.3-5.361Zm5.133,7.82c0,1.438.551,2.3,1.895,2.3h.269c1.344,0,1.908-.887,1.908-2.3v-7.82H12.5V1.962c0,.443-.134.712-.5.712-.336,0-.484-.282-.484-.712V-5.952H9.978Z"
            transform="translate(1476.988 25.431)" fill="#000000" />
    </g>
</svg>